<?xml version="1.0" standalone="no"?>
<!DOCTYPE svg PUBLIC "-//W3C//DTD SVG 20010904//EN"
 "http://www.w3.org/TR/2001/REC-SVG-20010904/DTD/svg10.dtd">
<svg version="1.0" xmlns="http://www.w3.org/2000/svg"
 width="934.000000pt" height="1280.000000pt" viewBox="0 0 934.000000 1280.000000"
 preserveAspectRatio="xMidYMid meet">
<metadata>
Created by potrace 1.15, written by Peter Selinger 2001-2017
</metadata>
<g transform="translate(0.000000,1280.000000) scale(0.100000,-0.100000)"
fill="#2196f3" stroke="none">
<path d="M4331 12789 c-337 -36 -691 -175 -954 -376 -98 -75 -263 -240 -337
-338 -185 -243 -295 -510 -335 -812 -46 -348 28 -717 205 -1022 219 -378 564
-662 984 -811 56 -19 100 -38 99 -43 -2 -4 -3 -58 -3 -120 l0 -112 -112 -18
c-593 -96 -1192 -330 -1708 -670 -47 -30 -88 -52 -91 -49 -11 12 -485 647
-493 660 -5 8 0 107 10 221 17 197 17 208 0 233 -24 37 -75 53 -115 36 -17 -7
-267 -206 -555 -441 -573 -467 -565 -459 -531 -530 9 -19 27 -39 41 -46 14 -6
96 -19 181 -28 l155 -17 285 -359 285 -359 -24 -26 c-211 -233 -300 -340 -429
-517 -490 -670 -787 -1439 -870 -2255 -19 -185 -17 -690 4 -865 77 -639 262
-1193 585 -1745 632 -1080 1693 -1902 2865 -2221 316 -86 547 -121 949 -144
394 -23 604 -18 898 21 1116 146 2186 755 2960 1684 496 594 846 1322 984
2045 53 279 76 534 76 845 0 730 -140 1347 -440 1950 -231 462 -488 819 -868
1203 -741 749 -1696 1236 -2707 1381 l-150 22 -6 59 c-4 33 -10 90 -14 126
l-6 67 53 17 c147 48 376 175 523 289 103 81 274 259 346 361 299 421 392 929
259 1414 -111 404 -397 780 -770 1012 -358 222 -801 322 -1229 278z m345 -159
c448 -37 828 -215 1127 -529 386 -407 518 -970 351 -1496 -114 -358 -389 -690
-740 -893 -75 -44 -212 -106 -255 -117 l-26 -6 -7 83 c-4 46 -9 98 -13 116 -3
20 -1 32 6 32 6 0 54 21 106 46 423 206 711 590 775 1033 19 129 8 362 -24
486 -82 326 -276 602 -557 795 -617 423 -1472 328 -1962 -218 -228 -254 -347
-557 -347 -885 0 -512 319 -995 805 -1217 l97 -45 -7 -120 c-3 -66 -9 -122
-11 -124 -2 -3 -53 15 -112 38 -536 216 -914 669 -1007 1206 -23 133 -23 357
0 490 123 712 750 1262 1510 1324 146 12 150 12 291 1z m136 -354 c269 -49
510 -176 703 -370 111 -111 176 -204 241 -341 152 -322 148 -664 -11 -991
-116 -239 -312 -437 -553 -560 -63 -32 -88 -41 -93 -32 -3 7 -9 43 -11 79 l-6
67 113 3 c173 6 155 -60 155 580 l0 538 -22 15 c-17 12 -49 16 -128 16 -239 0
-1372 -40 -1389 -49 -41 -22 -42 -31 -61 -448 -28 -593 -28 -600 -1 -626 19
-20 34 -22 147 -25 l125 -4 -2 -74 c-1 -41 -6 -74 -12 -74 -18 0 -132 62 -212
115 -271 180 -461 467 -521 784 -22 117 -15 363 14 471 134 502 544 855 1087
936 110 16 317 12 437 -10z m-3423 -3093 c-18 -162 -42 -116 261 -519 l270
-359 -28 -25 c-16 -14 -82 -70 -148 -125 -65 -55 -148 -128 -185 -162 -37 -35
-70 -63 -75 -62 -5 0 -135 160 -289 355 -154 195 -291 366 -306 380 -18 17
-41 26 -80 31 -30 3 -60 9 -66 12 -8 4 117 112 315 274 180 146 329 267 333
267 3 0 2 -30 -2 -67z m3816 -267 c384 -52 741 -145 1100 -287 161 -64 519
-245 683 -346 743 -459 1331 -1096 1696 -1837 227 -460 348 -897 396 -1431 17
-188 8 -792 -14 -950 -38 -271 -92 -510 -169 -745 -496 -1512 -1869 -2726
-3402 -3009 -369 -68 -773 -81 -1250 -41 -765 65 -1513 355 -2175 844 -333
245 -706 615 -959 951 -420 555 -706 1211 -815 1870 -64 384 -62 921 4 1320
198 1177 913 2268 1945 2967 615 417 1287 656 2005 712 25 2 223 2 440 1 296
-2 425 -7 515 -19z"/>
<path d="M4351 8170 c-152 -13 -309 -37 -461 -72 -1285 -292 -2382 -1386
-2699 -2694 -122 -506 -123 -1073 -1 -1571 157 -643 507 -1240 1017 -1733 562
-544 1242 -886 1978 -995 254 -37 737 -47 970 -20 424 49 795 164 1180 364
703 364 1285 951 1634 1650 178 354 282 690 336 1086 40 287 28 771 -25 1080
-94 543 -330 1055 -700 1520 -130 164 -407 440 -570 571 -557 443 -1182 712
-1860 800 -146 18 -639 27 -799 14z m817 -164 c375 -54 697 -152 1032 -313
583 -279 1086 -711 1435 -1233 290 -433 447 -841 521 -1350 21 -147 30 -618
15 -790 -54 -612 -289 -1198 -689 -1725 -219 -287 -552 -600 -853 -803 -466
-312 -931 -489 -1489 -564 -120 -16 -533 -15 -735 1 -754 61 -1469 387 -2055
936 -543 508 -907 1145 -1044 1825 -79 392 -81 828 -5 1230 93 491 315 985
635 1410 595 792 1464 1301 2374 1389 153 15 725 6 858 -13z"/>
<path d="M4373 7790 c-502 -109 -914 -523 -1017 -1024 -84 -406 54 -821 376
-1132 90 -87 233 -191 327 -238 86 -44 237 -95 341 -116 140 -28 376 -31 503
-7 404 80 778 371 953 741 89 190 117 312 117 521 0 163 -15 262 -59 393 -137
409 -506 739 -956 853 -125 32 -455 37 -585 9z m512 -144 c459 -100 832 -454
920 -872 39 -182 29 -393 -25 -556 -145 -434 -530 -753 -977 -810 -114 -15
-331 1 -448 32 -409 110 -732 432 -846 845 -26 92 -35 286 -20 396 69 478 471
885 961 975 95 17 338 12 435 -10z"/>
<path d="M6176 5555 l-1319 -794 -67 6 c-218 18 -446 -110 -545 -306 -36 -73
-64 -176 -65 -239 0 -28 -18 -50 -150 -180 -118 -115 -150 -153 -150 -173 0
-46 250 -398 294 -414 26 -9 48 0 230 93 l201 103 69 -10 c77 -11 185 -1 252
22 138 49 264 159 327 283 31 61 52 85 154 175 151 133 464 422 658 608 350
336 1526 1518 1532 1539 4 16 -1 33 -14 50 -45 61 25 99 -1407 -763z"/>
</g>
</svg>
